<svg id="svg" xmlns="http://www.w3.org/2000/svg" xmlns:xlink="http://www.w3.org/1999/xlink" width="400" height="400" viewBox="0, 0, 400,400" version="1.1"><g id="svgg"><path id="path0" d="M141.875 121.178 C 132.988 121.782,125.916 123.121,117.604 125.774 C 113.222 127.173,113.333 126.957,113.333 134.040 C 113.333 138.913,113.304 139.356,112.969 139.457 C 112.768 139.518,111.854 139.719,110.938 139.903 C 104.601 141.179,100.671 142.937,100.229 144.693 C 99.937 145.850,99.911 258.010,100.202 259.271 C 100.713 261.485,102.366 261.916,105.729 260.713 C 135.608 250.023,173.449 256.395,195.060 275.756 C 199.468 279.705,198.810 279.749,206.250 275.000 C 222.664 264.523,235.325 259.133,249.052 256.778 C 262.838 254.413,279.637 255.762,293.269 260.328 C 297.733 261.824,298.678 261.775,299.581 260.004 C 299.998 259.188,300.000 258.865,300.000 201.977 C 300.000 140.654,300.060 144.226,299.012 143.278 C 298.233 142.573,289.712 139.797,288.301 139.789 C 288.032 139.787,287.602 139.729,287.344 139.660 L 286.875 139.535 286.870 134.507 C 286.863 127.085,286.907 127.175,282.511 125.744 C 254.293 116.562,223.470 121.207,202.255 137.839 C 199.588 139.930,200.315 139.960,197.220 137.633 C 181.933 126.136,160.908 119.885,141.875 121.178 M156.354 127.480 C 171.333 129.514,187.500 136.424,195.839 144.356 L 196.667 145.144 196.663 197.520 C 196.662 226.327,196.583 250.018,196.489 250.167 C 196.361 250.368,195.738 250.032,194.048 248.849 C 174.565 235.209,149.076 231.060,123.773 237.410 C 121.297 238.031,119.247 238.540,119.218 238.541 C 119.189 238.541,119.189 214.425,119.218 184.950 L 119.271 131.357 120.625 130.873 C 130.178 127.453,145.466 126.001,156.354 127.480 M263.333 127.495 C 268.671 128.197,272.786 129.095,278.281 130.756 L 280.000 131.275 280.000 184.908 C 280.000 214.407,279.963 238.542,279.917 238.542 C 279.871 238.542,278.676 238.224,277.260 237.837 C 251.541 230.790,224.621 234.947,204.900 249.010 C 203.815 249.784,202.878 250.417,202.818 250.417 C 202.758 250.417,202.708 226.656,202.708 197.614 L 202.708 144.812 204.591 143.267 C 219.901 130.705,242.209 124.715,263.333 127.495 M113.125 194.905 C 113.242 250.097,113.075 244.860,114.741 245.557 C 115.721 245.966,116.072 245.904,120.625 244.517 C 146.600 236.606,168.394 240.282,193.390 256.790 C 200.238 261.313,199.084 261.258,204.940 257.338 C 230.901 239.958,253.461 236.272,280.347 245.019 C 283.884 246.170,284.894 246.002,285.810 244.112 L 286.250 243.202 286.250 194.387 L 286.250 145.572 287.076 145.704 C 287.530 145.776,289.101 146.234,290.566 146.720 L 293.229 147.604 293.282 200.885 C 293.314 233.298,293.259 254.167,293.142 254.167 C 293.036 254.167,291.794 253.832,290.381 253.424 C 259.360 244.456,224.381 250.869,201.764 269.673 C 199.767 271.334,200.278 271.392,197.644 269.200 C 177.756 252.643,145.397 245.642,116.250 251.590 C 113.771 252.096,109.643 253.145,107.396 253.840 C 106.823 254.017,106.237 254.163,106.094 254.164 C 105.886 254.166,105.833 243.382,105.833 200.933 L 105.833 147.699 106.349 147.464 C 107.438 146.968,112.004 145.650,112.500 145.689 L 113.021 145.729 113.125 194.905 " stroke="none" fill="#050505" fill-rule="evenodd"></path><path id="path1" d="M0.000 200.000 L 0.000 400.000 200.000 400.000 L 400.000 400.000 400.000 200.000 L 400.000 0.000 200.000 0.000 L 0.000 0.000 0.000 200.000 M152.500 121.261 C 168.927 122.430,184.666 128.192,197.220 137.633 C 200.315 139.960,199.588 139.930,202.255 137.839 C 223.470 121.207,254.293 116.562,282.511 125.744 C 286.907 127.175,286.863 127.085,286.870 134.507 L 286.875 139.535 287.344 139.660 C 287.602 139.729,288.032 139.787,288.301 139.789 C 289.712 139.797,298.233 142.573,299.012 143.278 C 300.060 144.226,300.000 140.654,300.000 201.977 C 300.000 258.865,299.998 259.188,299.581 260.004 C 298.678 261.775,297.733 261.824,293.269 260.328 C 279.637 255.762,262.838 254.413,249.052 256.778 C 235.325 259.133,222.664 264.523,206.250 275.000 C 198.810 279.749,199.468 279.705,195.060 275.756 C 173.449 256.395,135.608 250.023,105.729 260.713 C 102.366 261.916,100.713 261.485,100.202 259.271 C 99.911 258.010,99.937 145.850,100.229 144.693 C 100.671 142.937,104.601 141.179,110.938 139.903 C 111.854 139.719,112.768 139.518,112.969 139.457 C 113.304 139.356,113.333 138.913,113.333 134.040 C 113.333 126.957,113.222 127.173,117.604 125.774 C 125.916 123.121,132.988 121.782,141.875 121.178 C 144.185 121.021,149.741 121.064,152.500 121.261 M139.375 127.094 C 133.289 127.619,125.109 129.268,120.625 130.873 L 119.271 131.357 119.218 184.950 C 119.189 214.425,119.189 238.541,119.218 238.541 C 119.247 238.540,121.297 238.031,123.773 237.410 C 149.076 231.060,174.565 235.209,194.048 248.849 C 195.738 250.032,196.361 250.368,196.489 250.167 C 196.583 250.018,196.662 226.327,196.663 197.520 L 196.667 145.144 195.839 144.356 C 183.710 132.818,159.351 125.371,139.375 127.094 M246.146 127.090 C 230.156 128.501,215.753 134.108,204.591 143.267 L 202.708 144.812 202.708 197.614 C 202.708 226.656,202.758 250.417,202.818 250.417 C 202.878 250.417,203.815 249.784,204.900 249.010 C 224.621 234.947,251.541 230.790,277.260 237.837 C 278.676 238.224,279.871 238.542,279.917 238.542 C 279.963 238.542,280.000 214.407,280.000 184.908 L 280.000 131.275 278.281 130.756 C 272.786 129.095,268.671 128.197,263.333 127.495 C 259.460 126.985,249.887 126.760,246.146 127.090 M109.422 146.439 C 108.016 146.874,106.633 147.335,106.349 147.464 L 105.833 147.699 105.833 200.933 C 105.833 243.382,105.886 254.166,106.094 254.164 C 106.237 254.163,106.823 254.017,107.396 253.840 C 124.229 248.635,145.587 248.163,163.495 252.601 C 176.753 255.886,188.525 261.609,197.644 269.200 C 200.278 271.392,199.767 271.334,201.764 269.673 C 224.381 250.869,259.360 244.456,290.381 253.424 C 291.794 253.832,293.036 254.167,293.142 254.167 C 293.259 254.167,293.314 233.298,293.282 200.885 L 293.229 147.604 290.566 146.720 C 289.101 146.234,287.530 145.776,287.076 145.704 L 286.250 145.572 286.250 194.387 L 286.250 243.202 285.810 244.112 C 284.894 246.002,283.884 246.170,280.347 245.019 C 253.461 236.272,230.901 239.958,204.940 257.338 C 199.084 261.258,200.238 261.313,193.390 256.790 C 168.394 240.282,146.600 236.606,120.625 244.517 C 116.072 245.904,115.721 245.966,114.741 245.557 C 113.075 244.860,113.242 250.097,113.125 194.905 L 113.021 145.729 112.500 145.689 C 112.214 145.666,110.828 146.004,109.422 146.439 " stroke="none" fill="#fbfbfb" fill-rule="evenodd"></path></g></svg>